# AST/ASF file generated using VICON BodyLanguage
# -----------------------------------------------
:version 1.10
:name VICON
:units
  mass 1.0
  length 0.45
  angle deg
:documentation
   .ast/.asf automatically generated from VICON data using
   VICON BodyBuilder and BodyLanguage model FoxedUp or BRILLIANT.MOD
:root
   order TX TY TZ RX RY RZ
   axis XYZ
   position 0 0 0  
   orientation 0 0 0 
:bonedata
  begin
     id 1 
     name lhipjoint
     direction 0.543289 -0.788407 0.288535 
     length 2.57127 
     axis 0 0 0  XYZ
  end
  begin
     id 2 
     name lfemur
     direction 0.34202 -0.939693 0  
     length 8.47298  
     axis 0 0 20  XYZ
    dof rx ry rz
    limits (-160.0 20.0)
           (-70.0 70.0)
           (-60.0 70.0)
  end
  begin
     id 3 
     name ltibia
     direction 0.34202 -0.939693 0   
     length 8.13367   
     axis 0 0 20   XYZ
    dof rx
    limits (-10.0 170.0)
  end
  begin
     id 4 
     name lfoot
     direction 0.114037 -0.313314 0.942778   
     length 2.67113   
     axis -90 7.62852e-016 20   XYZ
    dof rx rz
    limits (-45.0 90.0)
           (-70.0 20.0)
  end
  begin
     id 5 
     name ltoes
     direction 1.536e-011 -4.21847e-011 1   
     length 1.32217   
     axis -90 7.62852e-016 20   XYZ
    dof rx
    limits (-90.0 20.0)
  end
  begin
     id 6 
     name rhipjoint
     direction -0.571293 -0.770752 0.282074   
     length 2.63017  
     axis 0 0 0  XYZ 
  end
  begin
     id 7 
     name rfemur
     direction -0.34202 -0.939693 0   
     length 8.60885   
     axis 0 0 -20   XYZ
    dof rx ry rz
    limits (-160.0 20.0)
           (-70.0 70.0)
           (-70.0 60.0)
  end
  begin
     id 8 
     name rtibia
     direction -0.34202 -0.939693 0   
     length 8.07673   
     axis 0 0 -20   XYZ
    dof rx
    limits (-10.0 170.0)
 end
 begin
     id 9 
     name rfoot
     direction -0.121336 -0.333368 0.934956   
     length 2.81602  
     axis -90 -7.62852e-016 -20   XYZ
    dof rx rz
    limits (-45.0 90.0)
           (-20.0 70.0)
  end
  begin
     id 10 
     name rtoes
     direction -1.53491e-011 -4.21808e-011 1   
     length 1.38905   
     axis -90 -7.62852e-016 -20   XYZ
    dof rx
    limits (-90.0 20.0)
  end
  begin
     id 11 
     name lowerback
     direction 0.0136776 0.999869 -0.00861835   
     length 2.14087   
     axis 0 0 0   XYZ
    dof rx ry rz
    limits (-20.0 45.0)
           (-30.0 30.0)
           (-30.0 30.0)
  end
  begin
     id 12 
     name upperback
     direction -0.00789158 0.999804 0.0181308   
     length 2.14151   
     axis 0 0 0   XYZ
    dof rx ry rz
    limits (-20.0 45.0)
           (-30.0 30.0)
           (-30.0 30.0)
  end
  begin
     id 13 
     name thorax
     direction -0.0135231 0.999666 0.0220247   
     length 2.13644   
     axis 0 0 0   XYZ
    dof rx ry rz
    limits (-20.0 45.0)
           (-30.0 30.0)
           (-30.0 30.0)
  end
  begin
     id 14 
     name lowerneck
     direction -0.0392259 0.997317 0.0618018   
     length 1.65045   
     axis 0 0 0   XYZ
    dof rx ry rz
    limits (-20.0 45.0)
           (-30.0 30.0)
           (-30.0 30.0)
  end
  begin
     id 15 
     name upperneck
     direction 0.0765547 0.994276 -0.0745319   
     length 1.66045   
     axis 0 0 0   XYZ
    dof rx ry rz
    limits (-20.0 45.0)
           (-30.0 30.0)
           (-30.0 30.0)
  end
  begin
     id 16
     name head
     direction 0.0241564 0.999031 -0.036785  
     length 1.66594  
     axis 0 0 0   XYZ
    dof rx ry rz
    limits (-20.0 45.0)
           (-30.0 30.0)
           (-30.0 30.0)
  end
  begin
     id 17 
     name lclavicle
     direction 0.967398 0.249018 0.0461573  
     length 3.75176  
     axis 0 0 0   XYZ
    dof ry rz
    limits (-20.0 10.0)
           (0.0 20.0)
  end
  begin
     id 18 
     name lhumerus
     direction 1 -4.48963e-011 -3.05005e-027   
     length 5.93342   
     axis 180 -30 -90   XYZ
    dof rx ry rz
    limits (-60.0 90.0)
           (-90.0 90.0)
           (-90.0 90.0)
  end
  begin
     id 19
     name lradius
     direction 1 -4.48957e-011 1.07006e-026   
     length 3.94763   
     axis 180 -30 -90   XYZ
    dof rx
    limits (-10.0 170.0)
  end
  begin
     id 20
     name lwrist
     direction 1 -4.48978e-011 1.92422e-026   
     length 1.97382   
     axis -1.18182e-014 90 90   XYZ
    dof ry
    limits (-180.0 0.0)
 end
  begin
     id 21 
     name lhand
     direction 1 -4.48931e-011 3.84844e-026   
     length 0.560187   
     axis -2.45563e-014 90 90   XYZ
    dof rx rz
    limits (-90.0 90.0)
           (-45.0 45.0)
  end
  begin
     id 22 
     name lfingers
     direction 1 -4.48952e-011 7.69687e-026   
     length 0.451637   
     axis -4.91126e-014 90 90   XYZ
    dof rx
    limits (0.0 90.0)
  end
  begin
     id 23
     name lthumb
     direction 0.707107 -6.34901e-011 0.707107   
     length 0.648463   
     axis -90 45 2.85299e-015   XYZ
    dof rx rz
    limits (-45.0 45.0)
           (-45.0 45.0)
  end
  begin
     id 24 
     name rclavicle
     direction -0.965946 0.258716 0.00371831   
     length 3.63667  
     axis 0 0 0   XYZ 
    dof ry rz
    limits (-10.0 20.0)
           (-20.0 0.0)
  end
  begin
     id 25 
     name rhumerus
     direction -1 -4.48966e-011 -1.78361e-028  
     length 6.28647   
     axis 180 30 90   XYZ
    dof rx ry rz
    limits (-90.0 60.0)
           (-90.0 90.0)
           (-90.0 90.0)
  end
  begin
     id 26 
     name rradius
     direction -1 -4.48961e-011 1.05248e-026   
     length 3.81645   
     axis 180 30 90   XYZ
    dof rx
    limits (-10.0 170.0)
  end
  begin
     id 27 
     name rwrist
     direction -1 -4.48979e-011 1.92422e-026   
     length 1.90822   
     axis -1.18182e-014 -90 -90   XYZ
    dof ry
    limits (-180.0 0.0)
  end
  begin
     id 28
     name rhand
     direction -1 -4.48937e-011 3.84844e-026   
     length 0.646185   
     axis -2.45563e-014 -90 -90   XYZ
    dof rx rz
    limits (-90.0 90.0)
           (-45.0 45.0)
  end
  begin
     id 29
     name rfingers
     direction -1 -4.48953e-011 7.69687e-026   
     length 0.520971   
     axis -4.91126e-014 -90 -90   XYZ
    dof rx
    limits (0.0 90.0)
  end
  begin
     id 30
     name rthumb
     direction -0.707107 -6.3494e-011 0.707107   
     length 0.748013   
     axis -90 -45 -2.85299e-015   XYZ
    dof rx rz
    limits (-45.0 45.0)
           (-45.0 45.0)
  end
:hierarchy
  begin
    root lhipjoint rhipjoint lowerback
    lhipjoint lfemur
    lfemur ltibia
    ltibia lfoot
    lfoot ltoes
    rhipjoint rfemur
    rfemur rtibia
    rtibia rfoot
    rfoot rtoes
    lowerback upperback
    upperback thorax
    thorax lowerneck lclavicle rclavicle
    lowerneck upperneck
    upperneck head
    lclavicle lhumerus
    lhumerus lradius
    lradius lwrist
    lwrist lhand lthumb
    lhand lfingers
    rclavicle rhumerus
    rhumerus rradius
    rradius rwrist
    rwrist rhand rthumb
    rhand rfingers
  end

#!OML:ASF H:\HAZMAT1\Patient Classification 1\Patient 3\Session 1\dancer.ASF
:FULLY-SPECIFIED
:DEGREES
107
upperback 9.991330 -3.714630 -4.614690
rfoot -39.718601 2.653530
lradius 53.892300
lthumb -21.163000 -98.745499
rradius 45.536701
lwrist -15.805600
rhand -57.197899 -59.946499
rhumerus 50.285198 7.584440 302.158997
lowerneck -0.573432 3.513780 2.849390
lhand -48.514801 69.880600
ltibia 130.445999
head 10.298100 1.119900 0.334590
rwrist 27.416300
lfingers 7.125020
rtoes -36.157200
lowerback 12.170300 -3.166100 11.163100
rfingers 7.125020
lclavicle 0.000000 0.000000
upperneck 31.926201 2.114470 2.017430
rfemur -77.065002 -8.341750 12.249900
thorax 2.998900 -1.307380 -10.963200
rclavicle 0.000000 0.000000
rtibia 115.745003
lfoot -19.498301 -19.706100
lhumerus 30.925800 4.445880 50.295300
rthumb -29.480400 -87.626602
root -24.726000 10.157700 4.503510 391.421997 264.351013 761.377014
ltoes -10.775400
lfemur -98.715302 9.562410 -22.126801
108
upperback 8.812050 -4.952650 -3.315050
rfoot -35.638599 -1.853090
lradius 69.523499
lthumb -20.606400 -272.247009
rradius 50.650200
lwrist -27.287701
rhand -57.899200 -71.210899
rhumerus 42.953098 10.022800 298.467987
lowerneck -0.457583 4.400310 2.502300
lhand -47.935501 58.826302
ltibia 123.914001
head 9.492190 1.639350 0.965114
rwrist 29.875700
lfingers 7.125020
rtoes -27.572100
lowerback 8.449160 -4.066200 13.529100
rfingers 7.125020
lclavicle 0.000000 0.000000
upperneck 29.920799 3.124800 3.504420
rfemur -59.970901 1.763860 10.913800
thorax 3.372850 -1.808010 -10.890700
rclavicle 0.000000 0.000000
rtibia 90.504700
lfoot -20.142200 -13.381800
lhumerus 18.346800 8.083210 49.987598
rthumb -30.149700 98.771004
root -26.319500 10.182300 4.913600 356.721008 265.615997 803.510986
ltoes -5.392630
lfemur -97.191498 6.137680 -21.431999
109
upperback 5.694700 -3.814340 -1.779920
rfoot -30.598700 -11.175200
lradius 73.487396
lthumb -22.100000 -94.113297
rradius 57.771900
lwrist -26.672400
rhand -57.473900 -73.800499
rhumerus 34.584900 9.575170 298.657990
lowerneck 0.304846 4.810080 0.661166
lhand -49.490501 65.356300
ltibia 117.096001
head 8.124770 1.933990 1.670760
rwrist 30.412300
lfingers 7.125020
rtoes -25.069700
lowerback 3.311550 -2.923620 16.193199
rfingers 7.125020
lclavicle 0.000000 -0.000000
upperneck 26.740299 3.938660 4.722570
rfemur -15.246500 1.990380 10.255600
thorax 3.148110 -1.296240 -10.991400
rclavicle 0.000000 -0.000000
rtibia 69.477402
lfoot -19.157400 -13.831400
lhumerus 13.889700 5.158500 47.174099
rthumb -29.743900 101.433998
root -27.399401 10.232600 5.464070 343.058990 263.268005 827.078979
ltoes -4.167810
lfemur -101.124001 4.569740 -18.783701
110
upperback 1.045200 -0.589539 -0.811412
rfoot -13.393900 -23.387600
lradius 72.540001
lthumb -23.055300 -99.220200
rradius 59.894901
lwrist -23.293600
rhand -57.673100 -66.870598
rhumerus 32.894901 11.901900 298.808990
lowerneck 1.244560 5.487080 -1.867070
lhand -50.485802 70.579300
ltibia 116.022003
head 7.586020 2.137170 2.479020
rwrist 30.703800
lfingers 7.125020
rtoes -7.578130
lowerback -3.592770 0.329876 20.899500
rfingers 7.125020
lclavicle -0.000000 -0.000000
upperneck 26.078100 4.765070 5.872000
rfemur 24.469000 -2.434200 2.295950
thorax 3.013710 0.091581 -12.747100
rclavicle -0.000000 -0.000000
rtibia 52.673199
lfoot -17.444401 -12.780200
lhumerus 9.547100 4.750650 47.137402
rthumb -29.934000 94.469803
root -27.323099 10.385800 5.949110 353.528015 255.789993 826.556030
ltoes -4.457950
lfemur -112.376999 9.859310 -19.332199
